<svg xmlns="http://www.w3.org/2000/svg" xmlns:xlink="http://www.w3.org/1999/xlink" width="500" zoomAndPan="magnify" viewBox="0 0 375 374.999991" height="500" preserveAspectRatio="xMidYMid meet" version="1.0"><defs><g/></defs><g fill="#ffffff" fill-opacity="1"><g transform="translate(23.673751, 75.000168)"><g><path d="M 7.5 -3.375 L 7.5 -49.109375 C 7.5 -50.378906 7.929688 -51.375 8.796875 -52.09375 C 9.671875 -52.8125 10.742188 -53.171875 12.015625 -53.171875 C 13.109375 -53.171875 14.082031 -52.941406 14.9375 -52.484375 C 15.789062 -52.035156 16.609375 -51.21875 17.390625 -50.03125 L 41.9375 -11.09375 L 42.296875 -11.09375 L 42.296875 -48.96875 C 42.296875 -50.425781 42.609375 -51.488281 43.234375 -52.15625 C 43.859375 -52.832031 44.570312 -53.171875 45.375 -53.171875 C 46.175781 -53.171875 46.851562 -52.898438 47.40625 -52.359375 C 47.957031 -51.828125 48.234375 -50.976562 48.234375 -49.8125 L 48.234375 -4.359375 C 48.234375 -2.960938 47.816406 -1.882812 46.984375 -1.125 C 46.148438 -0.375 45.113281 0 43.875 0 C 41.476562 0 39.660156 -1 38.421875 -3 L 13.875 -42.078125 L 13.4375 -42.078125 L 13.4375 -4.21875 C 13.4375 -2.75 13.125 -1.675781 12.5 -1 C 11.882812 -0.332031 11.171875 0 10.359375 0 C 9.554688 0 8.878906 -0.265625 8.328125 -0.796875 C 7.773438 -1.335938 7.5 -2.195312 7.5 -3.375 Z M 7.5 -3.375 "/></g></g></g><g fill="#ffffff" fill-opacity="1"><g transform="translate(120.351395, 75.000168)"><g><path d="M 49.734375 -26.546875 C 49.734375 -25.273438 49.644531 -23.742188 49.46875 -21.953125 C 49.300781 -20.160156 48.945312 -18.273438 48.40625 -16.296875 C 47.875 -14.316406 47.097656 -12.351562 46.078125 -10.40625 C 45.066406 -8.46875 43.710938 -6.726562 42.015625 -5.1875 C 40.328125 -3.65625 38.234375 -2.40625 35.734375 -1.4375 C 33.242188 -0.476562 30.253906 0 26.765625 0 C 23.253906 0 20.253906 -0.488281 17.765625 -1.46875 C 15.273438 -2.445312 13.1875 -3.722656 11.5 -5.296875 C 9.8125 -6.867188 8.46875 -8.632812 7.46875 -10.59375 C 6.46875 -12.5625 5.710938 -14.53125 5.203125 -16.5 C 4.691406 -18.46875 4.359375 -20.332031 4.203125 -22.09375 C 4.054688 -23.863281 3.984375 -25.347656 3.984375 -26.546875 C 3.984375 -27.835938 4.066406 -29.394531 4.234375 -31.21875 C 4.410156 -33.039062 4.765625 -34.9375 5.296875 -36.90625 C 5.835938 -38.882812 6.613281 -40.84375 7.625 -42.78125 C 8.644531 -44.726562 9.992188 -46.46875 11.671875 -48 C 13.359375 -49.539062 15.4375 -50.785156 17.90625 -51.734375 C 20.375 -52.691406 23.328125 -53.171875 26.765625 -53.171875 C 30.210938 -53.171875 33.175781 -52.6875 35.65625 -51.71875 C 38.132812 -50.757812 40.226562 -49.5 41.9375 -47.9375 C 43.644531 -46.375 45.007812 -44.613281 46.03125 -42.65625 C 47.0625 -40.707031 47.847656 -38.75 48.390625 -36.78125 C 48.941406 -34.820312 49.300781 -32.9375 49.46875 -31.125 C 49.644531 -29.320312 49.734375 -27.796875 49.734375 -26.546875 Z M 26.765625 -49.359375 C 24.640625 -49.359375 22.8125 -48.976562 21.28125 -48.21875 C 19.757812 -47.46875 18.46875 -46.472656 17.40625 -45.234375 C 16.351562 -44.003906 15.5 -42.585938 14.84375 -40.984375 C 14.195312 -39.390625 13.695312 -37.75 13.34375 -36.0625 C 12.988281 -34.382812 12.75 -32.710938 12.625 -31.046875 C 12.507812 -29.390625 12.453125 -27.890625 12.453125 -26.546875 C 12.453125 -25.398438 12.5 -24.039062 12.59375 -22.46875 C 12.695312 -20.894531 12.90625 -19.265625 13.21875 -17.578125 C 13.539062 -15.890625 14.007812 -14.222656 14.625 -12.578125 C 15.25 -10.929688 16.09375 -9.457031 17.15625 -8.15625 C 18.21875 -6.863281 19.53125 -5.816406 21.09375 -5.015625 C 22.65625 -4.210938 24.546875 -3.8125 26.765625 -3.8125 C 28.921875 -3.851562 30.769531 -4.238281 32.3125 -4.96875 C 33.863281 -5.707031 35.171875 -6.675781 36.234375 -7.875 C 37.296875 -9.070312 38.15625 -10.441406 38.8125 -11.984375 C 39.476562 -13.535156 39.988281 -15.148438 40.34375 -16.828125 C 40.695312 -18.503906 40.929688 -20.175781 41.046875 -21.84375 C 41.171875 -23.519531 41.234375 -25.085938 41.234375 -26.546875 C 41.234375 -27.722656 41.191406 -29.101562 41.109375 -30.6875 C 41.023438 -32.269531 40.820312 -33.910156 40.5 -35.609375 C 40.1875 -37.304688 39.71875 -38.972656 39.09375 -40.609375 C 38.46875 -42.242188 37.617188 -43.710938 36.546875 -45.015625 C 35.472656 -46.328125 34.132812 -47.378906 32.53125 -48.171875 C 30.9375 -48.960938 29.015625 -49.359375 26.765625 -49.359375 Z M 26.765625 -49.359375 "/></g></g></g><g fill="#ffffff" fill-opacity="1"><g transform="translate(214.978578, 75.000168)"><g><path d="M 23.546875 -8.453125 L 37.140625 -49.1875 C 37.398438 -49.988281 37.679688 -50.648438 37.984375 -51.171875 C 38.296875 -51.703125 38.628906 -52.113281 38.984375 -52.40625 C 39.335938 -52.695312 39.710938 -52.894531 40.109375 -53 C 40.515625 -53.113281 40.9375 -53.171875 41.375 -53.171875 C 42.082031 -53.171875 42.648438 -52.972656 43.078125 -52.578125 C 43.503906 -52.191406 43.71875 -51.71875 43.71875 -51.15625 C 43.71875 -50.863281 43.6875 -50.566406 43.625 -50.265625 C 43.570312 -49.960938 43.484375 -49.640625 43.359375 -49.296875 L 26.984375 -3 C 26.253906 -1 24.679688 0 22.265625 0 C 19.898438 0 18.398438 -0.898438 17.765625 -2.703125 L 1.640625 -48.75 C 1.453125 -49.332031 1.359375 -49.878906 1.359375 -50.390625 C 1.359375 -51.222656 1.617188 -51.894531 2.140625 -52.40625 C 2.671875 -52.914062 3.484375 -53.171875 4.578125 -53.171875 C 7.140625 -53.171875 8.859375 -51.84375 9.734375 -49.1875 L 23.109375 -8.453125 Z M 23.546875 -8.453125 "/></g></g></g><g fill="#ffffff" fill-opacity="1"><g transform="translate(300.708233, 75.000168)"><g><path d="M 13.59375 -14.25 L 9.734375 -3.984375 C 9.128906 -2.398438 8.441406 -1.335938 7.671875 -0.796875 C 6.898438 -0.265625 6.0625 0 5.15625 0 C 4.457031 0 3.945312 -0.191406 3.625 -0.578125 C 3.3125 -0.972656 3.15625 -1.476562 3.15625 -2.09375 C 3.15625 -2.601562 3.273438 -3.195312 3.515625 -3.875 L 21.171875 -51.375 C 21.390625 -51.96875 21.867188 -52.414062 22.609375 -52.71875 C 23.359375 -53.019531 24.242188 -53.171875 25.265625 -53.171875 C 26.367188 -53.171875 27.347656 -52.992188 28.203125 -52.640625 C 29.054688 -52.285156 29.601562 -51.789062 29.84375 -51.15625 L 47.015625 -3.59375 C 47.117188 -3.175781 47.171875 -2.804688 47.171875 -2.484375 C 47.171875 -1.773438 46.9375 -1.179688 46.46875 -0.703125 C 46.007812 -0.234375 45.265625 0 44.234375 0 C 41.453125 0 39.585938 -1.328125 38.640625 -3.984375 L 34.640625 -14.25 Z M 33.515625 -18.171875 L 24.46875 -44.3125 L 23.984375 -44.3125 L 14.765625 -18.171875 Z M 33.515625 -18.171875 "/></g></g></g><g fill="#ffffff" fill-opacity="1"><g transform="translate(28.581738, 124.2577)"><g><path d="M 4.796875 0.257812 C 7.804688 0.257812 9.59375 -1.710938 9.59375 -5.082031 C 9.59375 -7.285156 8.402344 -8.972656 5.832031 -10.605469 C 3.707031 -11.953125 3.085938 -12.78125 3.085938 -14.285156 C 3.085938 -15.839844 3.992188 -16.75 5.546875 -16.75 C 6.507812 -16.75 7.648438 -16.359375 8.660156 -15.660156 L 9.386719 -17.191406 C 8.089844 -17.96875 6.664062 -18.410156 5.417969 -18.410156 C 2.800781 -18.410156 1.113281 -16.800781 1.113281 -14.261719 C 1.113281 -12.1875 2.074219 -10.707031 4.511719 -9.203125 C 6.898438 -7.753906 7.597656 -6.6875 7.597656 -4.796875 C 7.597656 -2.722656 6.535156 -1.425781 4.746094 -1.425781 C 3.605469 -1.425781 2.332031 -1.917969 1.191406 -2.773438 L 0.570312 -1.113281 C 1.816406 -0.234375 3.34375 0.257812 4.796875 0.257812 Z M 4.796875 0.257812 "/></g></g></g><g fill="#ffffff" fill-opacity="1"><g transform="translate(49.866824, 124.2577)"><g><path d="M 9.929688 -18.148438 L 0.464844 -18.148438 L 0.464844 -16.515625 L 4.226562 -16.515625 L 4.226562 0 L 6.144531 0 L 6.144531 -16.515625 L 9.929688 -16.515625 Z M 9.929688 -18.148438 "/></g></g></g><g fill="#ffffff" fill-opacity="1"><g transform="translate(71.229683, 124.2577)"><g><path d="M 11.253906 0 L 7.855469 -7.804688 C 9.957031 -8.476562 11.070312 -10.214844 11.070312 -12.988281 C 11.070312 -16.542969 9.332031 -18.148438 5.679688 -18.148438 L 1.839844 -18.148438 L 1.839844 0 L 3.757812 0 L 3.757812 -7.492188 L 5.9375 -7.492188 L 9.152344 0 Z M 5.546875 -9.101562 L 3.757812 -9.101562 L 3.757812 -16.515625 L 5.496094 -16.515625 C 7.984375 -16.515625 9.101562 -15.375 9.101562 -12.910156 C 9.101562 -10.292969 7.984375 -9.101562 5.546875 -9.101562 Z M 5.546875 -9.101562 "/></g></g></g><g fill="#ffffff" fill-opacity="1"><g transform="translate(94.432995, 124.2577)"><g><path d="M 3.757812 -1.632812 L 3.757812 -8.53125 L 9.046875 -8.53125 L 9.046875 -10.164062 L 3.757812 -10.164062 L 3.757812 -16.515625 L 9.308594 -16.515625 L 9.308594 -18.148438 L 1.839844 -18.148438 L 1.839844 0 L 9.410156 0 L 9.410156 -1.632812 Z M 3.757812 -1.632812 "/></g></g></g><g fill="#ffffff" fill-opacity="1"><g transform="translate(115.614394, 124.2577)"><g><path d="M 9.929688 -18.148438 L 0.464844 -18.148438 L 0.464844 -16.515625 L 4.226562 -16.515625 L 4.226562 0 L 6.144531 0 L 6.144531 -16.515625 L 9.929688 -16.515625 Z M 9.929688 -18.148438 "/></g></g></g><g fill="#ffffff" fill-opacity="1"><g transform="translate(136.97725, 124.2577)"><g><path d="M 6.273438 0.179688 C 7.855469 0.179688 9.101562 -0.207031 10.136719 -1.035156 L 9.488281 -2.617188 C 8.609375 -1.894531 7.542969 -1.503906 6.429688 -1.503906 C 4.042969 -1.503906 3.242188 -3.421875 3.242188 -9.101562 C 3.242188 -14.804688 3.992188 -16.644531 6.378906 -16.644531 C 7.363281 -16.644531 8.21875 -16.308594 9.074219 -15.660156 L 9.800781 -17.136719 C 8.945312 -17.914062 7.699219 -18.332031 6.273438 -18.332031 C 2.617188 -18.332031 1.269531 -15.894531 1.269531 -9.046875 C 1.269531 -2.179688 2.566406 0.179688 6.273438 0.179688 Z M 6.273438 0.179688 "/></g></g></g><g fill="#ffffff" fill-opacity="1"><g transform="translate(158.67709, 124.2577)"><g><path d="M 9.203125 -18.148438 L 9.203125 -10.164062 L 3.757812 -10.164062 L 3.757812 -18.148438 L 1.839844 -18.148438 L 1.839844 0 L 3.757812 0 L 3.757812 -8.53125 L 9.203125 -8.53125 L 9.203125 0 L 11.121094 0 L 11.121094 -18.148438 Z M 9.203125 -18.148438 "/></g></g></g><g fill="#ffffff" fill-opacity="1"><g transform="translate(182.580294, 124.2577)"><g/></g></g><g fill="#ffffff" fill-opacity="1"><g transform="translate(197.799641, 124.2577)"><g><path d="M 6.273438 0.179688 C 7.855469 0.179688 9.101562 -0.207031 10.136719 -1.035156 L 9.488281 -2.617188 C 8.609375 -1.894531 7.542969 -1.503906 6.429688 -1.503906 C 4.042969 -1.503906 3.242188 -3.421875 3.242188 -9.101562 C 3.242188 -14.804688 3.992188 -16.644531 6.378906 -16.644531 C 7.363281 -16.644531 8.21875 -16.308594 9.074219 -15.660156 L 9.800781 -17.136719 C 8.945312 -17.914062 7.699219 -18.332031 6.273438 -18.332031 C 2.617188 -18.332031 1.269531 -15.894531 1.269531 -9.046875 C 1.269531 -2.179688 2.566406 0.179688 6.273438 0.179688 Z M 6.273438 0.179688 "/></g></g></g><g fill="#ffffff" fill-opacity="1"><g transform="translate(219.499481, 124.2577)"><g><path d="M 3.757812 -1.632812 L 3.757812 -8.53125 L 9.046875 -8.53125 L 9.046875 -10.164062 L 3.757812 -10.164062 L 3.757812 -16.515625 L 9.308594 -16.515625 L 9.308594 -18.148438 L 1.839844 -18.148438 L 1.839844 0 L 9.410156 0 L 9.410156 -1.632812 Z M 3.757812 -1.632812 "/></g></g></g><g fill="#ffffff" fill-opacity="1"><g transform="translate(240.680891, 124.2577)"><g><path d="M 1.839844 0 L 3.757812 0 L 3.757812 -18.148438 L 1.839844 -18.148438 Z M 1.839844 0 "/></g></g></g><g fill="#ffffff" fill-opacity="1"><g transform="translate(257.222272, 124.2577)"><g><path d="M 1.839844 0 L 9.410156 0 L 9.410156 -1.632812 L 3.757812 -1.632812 L 3.757812 -18.148438 L 1.839844 -18.148438 Z M 1.839844 0 "/></g></g></g><g fill="#ffffff" fill-opacity="1"><g transform="translate(278.014858, 124.2577)"><g><path d="M 1.839844 0 L 3.757812 0 L 3.757812 -18.148438 L 1.839844 -18.148438 Z M 1.839844 0 "/></g></g></g><g fill="#ffffff" fill-opacity="1"><g transform="translate(294.556239, 124.2577)"><g><path d="M 1.839844 0 L 3.683594 0 L 3.683594 -11.277344 C 3.683594 -12.210938 3.65625 -12.625 3.292969 -16.074219 L 3.398438 -16.074219 C 3.683594 -14.984375 4.042969 -13.664062 4.589844 -12.160156 L 8.839844 0 L 11.277344 0 L 11.277344 -18.148438 L 9.4375 -18.148438 L 9.4375 -6.6875 C 9.4375 -5.757812 9.566406 -4.175781 9.851562 -1.96875 L 9.75 -1.96875 C 9.4375 -3.1875 9.023438 -4.539062 8.453125 -6.09375 L 4.253906 -18.148438 L 1.839844 -18.148438 Z M 1.839844 0 "/></g></g></g><g fill="#ffffff" fill-opacity="1"><g transform="translate(318.640901, 124.2577)"><g><path d="M 5.601562 -10.164062 L 5.601562 -8.554688 L 8.761719 -8.554688 L 8.761719 -5.910156 C 8.761719 -2.878906 7.882812 -1.425781 6.066406 -1.425781 C 4.019531 -1.425781 3.214844 -3.578125 3.214844 -9.101562 C 3.214844 -14.726562 4.019531 -16.722656 6.300781 -16.722656 C 7.3125 -16.722656 8.453125 -16.335938 9.308594 -15.738281 L 10.058594 -17.214844 C 9.023438 -17.941406 7.753906 -18.410156 6.300781 -18.410156 C 2.617188 -18.410156 1.269531 -15.894531 1.269531 -9.046875 C 1.269531 -2.332031 2.617188 0.257812 6.042969 0.257812 C 9.101562 0.257812 10.628906 -1.816406 10.628906 -6.015625 L 10.628906 -10.164062 Z M 5.601562 -10.164062 "/></g></g></g><g fill="#ffffff" fill-opacity="1"><g transform="translate(341.248016, 124.2577)"><g><path d="M 4.796875 0.257812 C 7.804688 0.257812 9.59375 -1.710938 9.59375 -5.082031 C 9.59375 -7.285156 8.402344 -8.972656 5.832031 -10.605469 C 3.707031 -11.953125 3.085938 -12.78125 3.085938 -14.285156 C 3.085938 -15.839844 3.992188 -16.75 5.546875 -16.75 C 6.507812 -16.75 7.648438 -16.359375 8.660156 -15.660156 L 9.386719 -17.191406 C 8.089844 -17.96875 6.664062 -18.410156 5.417969 -18.410156 C 2.800781 -18.410156 1.113281 -16.800781 1.113281 -14.261719 C 1.113281 -12.1875 2.074219 -10.707031 4.511719 -9.203125 C 6.898438 -7.753906 7.597656 -6.6875 7.597656 -4.796875 C 7.597656 -2.722656 6.535156 -1.425781 4.746094 -1.425781 C 3.605469 -1.425781 2.332031 -1.917969 1.191406 -2.773438 L 0.570312 -1.113281 C 1.816406 -0.234375 3.34375 0.257812 4.796875 0.257812 Z M 4.796875 0.257812 "/></g></g></g></svg>