<svg xmlns="http://www.w3.org/2000/svg" xmlns:xlink="http://www.w3.org/1999/xlink" width="500" zoomAndPan="magnify" viewBox="0 0 375 374.999991" height="500" preserveAspectRatio="xMidYMid meet" version="1.0"><defs><g/><clipPath id="c0eda632a0"><path d="M 57.75 37.5 L 317.25 37.5 L 317.25 337.5 L 57.75 337.5 Z M 57.75 37.5 " clip-rule="nonzero"/></clipPath></defs><g clip-path="url(#c0eda632a0)"><path fill="#13db39" d="M 317.25 143.566406 L 311.390625 143.566406 L 311.390625 115.976562 L 187.5 44.394531 L 63.609375 115.976562 L 63.609375 143.566406 L 57.75 143.566406 L 57.75 112.578125 L 187.5 37.65625 L 317.25 112.578125 Z M 317.25 262.421875 L 317.25 231.433594 L 311.390625 231.433594 L 311.390625 259.023438 L 187.5 330.546875 L 63.609375 259.023438 L 63.609375 231.433594 L 57.75 231.433594 L 57.75 262.421875 L 187.5 337.34375 Z M 317.25 262.421875 " fill-opacity="1" fill-rule="nonzero"/></g><g fill="#13db39" fill-opacity="1"><g transform="translate(117.947865, 170.999989)"><g><path d="M 18.375 -0.046875 L 11.125 -11.8125 L 9.3125 -11.8125 L 9.359375 0 L 1.765625 0 L 1.765625 -35.28125 C 2.804688 -35.28125 3.6875 -35.28125 4.40625 -35.28125 C 5.125 -35.28125 5.8125 -35.285156 6.46875 -35.296875 C 7.125 -35.316406 7.8125 -35.328125 8.53125 -35.328125 C 9.25 -35.328125 10.128906 -35.328125 11.171875 -35.328125 C 14.210938 -35.328125 16.671875 -35.046875 18.546875 -34.484375 C 20.421875 -33.929688 21.890625 -33.140625 22.953125 -32.109375 C 24.015625 -31.085938 24.722656 -29.847656 25.078125 -28.390625 C 25.441406 -26.941406 25.625 -25.332031 25.625 -23.5625 C 25.625 -22.351562 25.507812 -21.21875 25.28125 -20.15625 C 25.050781 -19.101562 24.664062 -18.117188 24.125 -17.203125 C 23.59375 -16.285156 22.867188 -15.453125 21.953125 -14.703125 C 21.035156 -13.953125 19.875 -13.28125 18.46875 -12.6875 L 26.515625 -0.046875 Z M 12.109375 -17 C 13.347656 -17 14.390625 -17.175781 15.234375 -17.53125 C 16.085938 -17.894531 16.765625 -18.367188 17.265625 -18.953125 C 17.773438 -19.546875 18.144531 -20.234375 18.375 -21.015625 C 18.601562 -21.804688 18.71875 -22.625 18.71875 -23.46875 C 18.71875 -24.351562 18.644531 -25.191406 18.5 -25.984375 C 18.351562 -26.785156 18.039062 -27.488281 17.5625 -28.09375 C 17.09375 -28.707031 16.429688 -29.191406 15.578125 -29.546875 C 14.734375 -29.910156 13.625 -30.09375 12.25 -30.09375 L 9.3125 -30.09375 L 9.3125 -17 Z M 12.109375 -17 "/></g></g></g><g fill="#13db39" fill-opacity="1"><g transform="translate(149.403622, 170.999989)"><g><path d="M 14.890625 -25.71875 C 16.722656 -25.71875 18.472656 -25.382812 20.140625 -24.71875 C 21.804688 -24.050781 23.273438 -23.128906 24.546875 -21.953125 C 25.816406 -20.773438 26.828125 -19.378906 27.578125 -17.765625 C 28.335938 -16.148438 28.71875 -14.394531 28.71875 -12.5 C 28.71875 -10.601562 28.335938 -8.84375 27.578125 -7.21875 C 26.828125 -5.601562 25.816406 -4.207031 24.546875 -3.03125 C 23.273438 -1.863281 21.804688 -0.941406 20.140625 -0.265625 C 18.472656 0.398438 16.722656 0.734375 14.890625 0.734375 C 13.066406 0.734375 11.3125 0.398438 9.625 -0.265625 C 7.945312 -0.941406 6.46875 -1.863281 5.1875 -3.03125 C 3.914062 -4.207031 2.90625 -5.601562 2.15625 -7.21875 C 1.40625 -8.84375 1.03125 -10.601562 1.03125 -12.5 C 1.03125 -14.394531 1.40625 -16.148438 2.15625 -17.765625 C 2.90625 -19.378906 3.914062 -20.773438 5.1875 -21.953125 C 6.46875 -23.128906 7.945312 -24.050781 9.625 -24.71875 C 11.3125 -25.382812 13.066406 -25.71875 14.890625 -25.71875 Z M 14.703125 -20.4375 C 13.648438 -20.4375 12.707031 -20.195312 11.875 -19.71875 C 11.050781 -19.25 10.351562 -18.640625 9.78125 -17.890625 C 9.207031 -17.140625 8.765625 -16.289062 8.453125 -15.34375 C 8.140625 -14.394531 7.984375 -13.445312 7.984375 -12.5 C 7.984375 -11.550781 8.140625 -10.601562 8.453125 -9.65625 C 8.765625 -8.707031 9.207031 -7.859375 9.78125 -7.109375 C 10.351562 -6.359375 11.050781 -5.742188 11.875 -5.265625 C 12.707031 -4.796875 13.648438 -4.5625 14.703125 -4.5625 C 15.742188 -4.5625 16.679688 -4.796875 17.515625 -5.265625 C 18.347656 -5.742188 19.050781 -6.359375 19.625 -7.109375 C 20.195312 -7.859375 20.632812 -8.707031 20.9375 -9.65625 C 21.25 -10.601562 21.40625 -11.550781 21.40625 -12.5 C 21.40625 -13.445312 21.25 -14.394531 20.9375 -15.34375 C 20.632812 -16.289062 20.195312 -17.140625 19.625 -17.890625 C 19.050781 -18.640625 18.347656 -19.25 17.515625 -19.71875 C 16.679688 -20.195312 15.742188 -20.4375 14.703125 -20.4375 Z M 14.703125 -20.4375 "/></g></g></g><g fill="#13db39" fill-opacity="1"><g transform="translate(183.897134, 170.999989)"><g><path d="M 11.859375 10.234375 L 5.140625 10.234375 L 8.671875 -0.296875 L 0.6875 -24.40625 L 7.59375 -24.40625 L 12.25 -9.359375 L 17.046875 -24.40625 L 23.96875 -24.40625 Z M 11.859375 10.234375 "/></g></g></g><g fill="#13db39" fill-opacity="1"><g transform="translate(213.050081, 170.999989)"><g><path d="M 17.34375 -16.859375 C 17.34375 -17.804688 17.171875 -18.546875 16.828125 -19.078125 C 16.484375 -19.617188 16.023438 -20.03125 15.453125 -20.3125 C 14.890625 -20.59375 14.238281 -20.765625 13.5 -20.828125 C 12.757812 -20.890625 12.015625 -20.921875 11.265625 -20.921875 C 9.671875 -20.921875 8.085938 -20.644531 6.515625 -20.09375 L 4.84375 -24.15625 C 6.050781 -24.582031 7.285156 -24.867188 8.546875 -25.015625 C 9.804688 -25.160156 11.070312 -25.234375 12.34375 -25.234375 C 13.78125 -25.234375 15.203125 -25.117188 16.609375 -24.890625 C 18.015625 -24.660156 19.269531 -24.234375 20.375 -23.609375 C 21.488281 -22.992188 22.390625 -22.140625 23.078125 -21.046875 C 23.765625 -19.953125 24.109375 -18.539062 24.109375 -16.8125 C 24.109375 -14 24.097656 -11.195312 24.078125 -8.40625 C 24.066406 -5.613281 24.0625 -2.8125 24.0625 0 L 17.34375 0 L 17.34375 -2.015625 C 16.425781 -1.097656 15.363281 -0.410156 14.15625 0.046875 C 12.945312 0.503906 11.707031 0.734375 10.4375 0.734375 C 9.257812 0.734375 8.113281 0.535156 7 0.140625 C 5.894531 -0.242188 4.898438 -0.800781 4.015625 -1.53125 C 3.128906 -2.269531 2.425781 -3.15625 1.90625 -4.1875 C 1.382812 -5.21875 1.125 -6.351562 1.125 -7.59375 C 1.125 -8.832031 1.394531 -9.957031 1.9375 -10.96875 C 2.476562 -11.988281 3.179688 -12.863281 4.046875 -13.59375 C 4.910156 -14.332031 5.894531 -14.894531 7 -15.28125 C 8.113281 -15.675781 9.257812 -15.875 10.4375 -15.875 C 11.707031 -15.875 12.945312 -15.644531 14.15625 -15.1875 C 15.363281 -14.726562 16.425781 -14.039062 17.34375 -13.125 Z M 12.5 -11.859375 C 11.9375 -11.859375 11.359375 -11.765625 10.765625 -11.578125 C 10.179688 -11.398438 9.660156 -11.140625 9.203125 -10.796875 C 8.753906 -10.460938 8.378906 -10.046875 8.078125 -9.546875 C 7.785156 -9.054688 7.640625 -8.503906 7.640625 -7.890625 C 7.640625 -7.265625 7.785156 -6.707031 8.078125 -6.21875 C 8.378906 -5.726562 8.753906 -5.3125 9.203125 -4.96875 C 9.660156 -4.625 10.179688 -4.363281 10.765625 -4.1875 C 11.359375 -4.007812 11.9375 -3.921875 12.5 -3.921875 C 13.050781 -3.921875 13.613281 -4.007812 14.1875 -4.1875 C 14.757812 -4.363281 15.28125 -4.613281 15.75 -4.9375 C 16.226562 -5.269531 16.613281 -5.679688 16.90625 -6.171875 C 17.195312 -6.660156 17.34375 -7.234375 17.34375 -7.890625 C 17.34375 -8.503906 17.195312 -9.066406 16.90625 -9.578125 C 16.613281 -10.085938 16.226562 -10.503906 15.75 -10.828125 C 15.28125 -11.148438 14.757812 -11.398438 14.1875 -11.578125 C 13.613281 -11.765625 13.050781 -11.859375 12.5 -11.859375 Z M 12.5 -11.859375 "/></g></g></g><g fill="#13db39" fill-opacity="1"><g transform="translate(243.525912, 170.999989)"><g><path d="M 3.4375 0 L 3.4375 -34.796875 L 10.09375 -34.796875 L 10.09375 0 Z M 3.4375 0 "/></g></g></g><g fill="#13db39" fill-opacity="1"><g transform="translate(124.803333, 239.249984)"><g><path d="M 11.3125 0 L 0.34375 -35.28125 L 8.078125 -35.28125 L 15.875 -6.8125 L 23.671875 -35.28125 L 31.40625 -35.28125 L 20.4375 0 Z M 11.3125 0 "/></g></g></g><g fill="#13db39" fill-opacity="1"><g transform="translate(161.109703, 239.249984)"><g><path d="M 9.359375 -24.5 L 9.359375 0 L 2.640625 0 L 2.640625 -24.5 Z M 5.984375 -28.421875 C 5.097656 -28.421875 4.316406 -28.722656 3.640625 -29.328125 C 2.972656 -29.929688 2.640625 -30.691406 2.640625 -31.609375 C 2.640625 -32.484375 2.984375 -33.222656 3.671875 -33.828125 C 4.359375 -34.429688 5.128906 -34.734375 5.984375 -34.734375 C 6.859375 -34.734375 7.640625 -34.441406 8.328125 -33.859375 C 9.015625 -33.273438 9.359375 -32.523438 9.359375 -31.609375 C 9.359375 -30.691406 9.015625 -29.929688 8.328125 -29.328125 C 7.640625 -28.722656 6.859375 -28.421875 5.984375 -28.421875 Z M 5.984375 -28.421875 "/></g></g></g><g fill="#13db39" fill-opacity="1"><g transform="translate(177.327677, 239.249984)"><g><path d="M 2.203125 -24.5 L 8.875 -24.5 L 8.875 -20.328125 C 9.75 -21.835938 10.71875 -23.03125 11.78125 -23.90625 C 12.84375 -24.789062 14.289062 -25.234375 16.125 -25.234375 C 17.71875 -25.234375 18.972656 -25.035156 19.890625 -24.640625 C 20.804688 -24.253906 21.492188 -23.691406 21.953125 -22.953125 C 22.410156 -22.222656 22.695312 -21.328125 22.8125 -20.265625 C 22.925781 -19.203125 22.984375 -17.984375 22.984375 -16.609375 L 22.984375 0 L 16.3125 0 L 16.3125 -16.609375 C 16.3125 -17.617188 16.082031 -18.367188 15.625 -18.859375 C 15.164062 -19.347656 14.414062 -19.59375 13.375 -19.59375 C 12.625 -19.59375 11.96875 -19.445312 11.40625 -19.15625 C 10.851562 -18.863281 10.390625 -18.472656 10.015625 -17.984375 C 9.640625 -17.492188 9.351562 -16.9375 9.15625 -16.3125 C 8.96875 -15.695312 8.875 -15.046875 8.875 -14.359375 L 8.875 0 L 2.203125 0 Z M 2.203125 -24.5 "/></g></g></g><g fill="#13db39" fill-opacity="1"><g transform="translate(207.509538, 239.249984)"><g><path d="M 11.859375 10.234375 L 5.140625 10.234375 L 8.671875 -0.296875 L 0.6875 -24.40625 L 7.59375 -24.40625 L 12.25 -9.359375 L 17.046875 -24.40625 L 23.96875 -24.40625 Z M 11.859375 10.234375 "/></g></g></g><g fill="#13db39" fill-opacity="1"><g transform="translate(236.662479, 239.249984)"><g><path d="M 3.4375 0 L 3.4375 -34.796875 L 10.09375 -34.796875 L 10.09375 0 Z M 3.4375 0 "/></g></g></g></svg>