<svg xmlns="http://www.w3.org/2000/svg" xmlns:xlink="http://www.w3.org/1999/xlink" width="500" zoomAndPan="magnify" viewBox="0 0 375 374.999991" height="500" preserveAspectRatio="xMidYMid meet" version="1.0"><defs><g/></defs><g fill="#ffffff" fill-opacity="1"><g transform="translate(87.023437, 196.237458)"><g><path d="M 5.453125 0 C 5.453125 0 5.453125 -18.960938 5.453125 -56.890625 C 5.453125 -56.890625 9.460938 -56.890625 17.484375 -56.890625 C 17.484375 -56.890625 25.34375 -43.085938 41.0625 -15.484375 C 41.0625 -15.484375 41.0625 -29.285156 41.0625 -56.890625 C 41.0625 -56.890625 44.566406 -56.890625 51.578125 -56.890625 C 51.578125 -56.890625 51.578125 -37.925781 51.578125 0 C 51.578125 0 47.65625 0 39.8125 0 C 39.8125 0 31.878906 -13.785156 16.015625 -41.359375 C 16.015625 -41.359375 16.015625 -27.570312 16.015625 0 C 16.015625 0 12.492188 0 5.453125 0 Z M 5.453125 0 "/></g></g></g><g fill="#ffffff" fill-opacity="1"><g transform="translate(144.053291, 196.237458)"><g><path d="M 25.046875 -43.65625 C 29.097656 -43.65625 32.851562 -42.648438 36.3125 -40.640625 C 39.78125 -38.640625 42.515625 -35.914062 44.515625 -32.46875 C 46.523438 -29.019531 47.53125 -25.28125 47.53125 -21.25 C 47.53125 -17.238281 46.519531 -13.519531 44.5 -10.09375 C 42.476562 -6.675781 39.722656 -3.96875 36.234375 -1.96875 C 32.753906 0.0195312 28.972656 1.015625 24.890625 1.015625 C 20.773438 1.015625 16.96875 0.0195312 13.46875 -1.96875 C 9.976562 -3.96875 7.21875 -6.675781 5.1875 -10.09375 C 3.15625 -13.519531 2.140625 -17.238281 2.140625 -21.25 C 2.140625 -24.300781 2.734375 -27.210938 3.921875 -29.984375 C 5.117188 -32.753906 6.738281 -35.132812 8.78125 -37.125 C 10.820312 -39.113281 13.257812 -40.695312 16.09375 -41.875 C 18.925781 -43.0625 21.910156 -43.65625 25.046875 -43.65625 Z M 24.625 -34.25 C 21.3125 -34.25 18.457031 -32.976562 16.0625 -30.4375 C 13.675781 -27.894531 12.484375 -24.851562 12.484375 -21.3125 C 12.484375 -17.757812 13.6875 -14.71875 16.09375 -12.1875 C 18.5 -9.65625 21.394531 -8.390625 24.78125 -8.390625 C 28.1875 -8.390625 31.101562 -9.644531 33.53125 -12.15625 C 35.96875 -14.675781 37.1875 -17.707031 37.1875 -21.25 C 37.1875 -24.90625 35.96875 -27.984375 33.53125 -30.484375 C 31.101562 -32.992188 28.132812 -34.25 24.625 -34.25 Z M 24.625 -34.25 "/></g></g></g><g fill="#ffffff" fill-opacity="1"><g transform="translate(193.677158, 196.237458)"><g><path d="M 17.40625 0 C 17.40625 0 11.675781 -14.222656 0.21875 -42.671875 C 0.21875 -42.671875 4.019531 -42.671875 11.625 -42.671875 C 11.625 -42.671875 14.90625 -33.25 21.46875 -14.40625 C 21.46875 -14.40625 24.703125 -23.828125 31.171875 -42.671875 C 31.171875 -42.671875 35.03125 -42.671875 42.75 -42.671875 C 42.75 -42.671875 37.019531 -28.445312 25.5625 0 C 25.5625 0 22.84375 0 17.40625 0 Z M 17.40625 0 "/></g></g></g><g fill="#ffffff" fill-opacity="1"><g transform="translate(236.609322, 196.237458)"><g><path d="M 47.1875 -42.671875 C 47.1875 -42.671875 47.1875 -28.445312 47.1875 0 C 47.1875 0 44.066406 0 37.828125 0 C 37.828125 0 37.828125 -1.84375 37.828125 -5.53125 C 35.765625 -3.195312 33.632812 -1.519531 31.4375 -0.5 C 29.25 0.507812 26.65625 1.015625 23.65625 1.015625 C 19.539062 1.015625 15.847656 0.0703125 12.578125 -1.8125 C 9.304688 -3.707031 6.75 -6.347656 4.90625 -9.734375 C 3.0625 -13.117188 2.140625 -16.929688 2.140625 -21.171875 C 2.140625 -25.453125 3.066406 -29.300781 4.921875 -32.71875 C 6.773438 -36.144531 9.359375 -38.820312 12.671875 -40.75 C 15.984375 -42.6875 19.71875 -43.65625 23.875 -43.65625 C 26.957031 -43.65625 29.613281 -43.117188 31.84375 -42.046875 C 34.070312 -40.984375 36.066406 -39.285156 37.828125 -36.953125 L 37.828125 -42.671875 Z M 24.78125 -34.25 C 21.21875 -34.25 18.273438 -32.992188 15.953125 -30.484375 C 13.640625 -27.984375 12.484375 -24.800781 12.484375 -20.9375 C 12.484375 -17.207031 13.65625 -14.179688 16 -11.859375 C 18.34375 -9.546875 21.378906 -8.390625 25.109375 -8.390625 C 28.828125 -8.390625 31.816406 -9.566406 34.078125 -11.921875 C 36.347656 -14.273438 37.484375 -17.359375 37.484375 -21.171875 C 37.484375 -25.023438 36.296875 -28.164062 33.921875 -30.59375 C 31.554688 -33.03125 28.507812 -34.25 24.78125 -34.25 Z M 24.78125 -34.25 "/></g></g></g><g fill="#ffffff" fill-opacity="1"><g transform="translate(89.387694, 243.962708)"><g><path d="M 14.03125 -5.3125 C 14.03125 -3.5625 13.390625 -2.191406 12.109375 -1.203125 C 10.835938 -0.210938 9.109375 0.28125 6.921875 0.28125 C 4.546875 0.28125 2.722656 -0.0234375 1.453125 -0.640625 L 1.453125 -2.890625 C 2.273438 -2.535156 3.164062 -2.257812 4.125 -2.0625 C 5.09375 -1.863281 6.050781 -1.765625 7 -1.765625 C 8.550781 -1.765625 9.71875 -2.054688 10.5 -2.640625 C 11.28125 -3.234375 11.671875 -4.050781 11.671875 -5.09375 C 11.671875 -5.789062 11.53125 -6.359375 11.25 -6.796875 C 10.976562 -7.242188 10.515625 -7.65625 9.859375 -8.03125 C 9.210938 -8.40625 8.222656 -8.828125 6.890625 -9.296875 C 5.035156 -9.960938 3.707031 -10.75 2.90625 -11.65625 C 2.101562 -12.570312 1.703125 -13.765625 1.703125 -15.234375 C 1.703125 -16.773438 2.28125 -18 3.4375 -18.90625 C 4.601562 -19.820312 6.140625 -20.28125 8.046875 -20.28125 C 10.023438 -20.28125 11.847656 -19.914062 13.515625 -19.1875 L 12.796875 -17.15625 C 11.148438 -17.851562 9.546875 -18.203125 7.984375 -18.203125 C 6.753906 -18.203125 5.789062 -17.9375 5.09375 -17.40625 C 4.40625 -16.875 4.0625 -16.140625 4.0625 -15.203125 C 4.0625 -14.515625 4.1875 -13.945312 4.4375 -13.5 C 4.695312 -13.0625 5.128906 -12.65625 5.734375 -12.28125 C 6.335938 -11.914062 7.265625 -11.507812 8.515625 -11.0625 C 10.609375 -10.3125 12.050781 -9.507812 12.84375 -8.65625 C 13.632812 -7.800781 14.03125 -6.6875 14.03125 -5.3125 Z M 14.03125 -5.3125 "/></g></g></g><g fill="#ffffff" fill-opacity="1"><g transform="translate(104.752737, 243.962708)"><g><path d="M 7.25 -1.59375 C 7.644531 -1.59375 8.03125 -1.625 8.40625 -1.6875 C 8.78125 -1.75 9.078125 -1.8125 9.296875 -1.875 L 9.296875 -0.140625 C 9.046875 -0.015625 8.679688 0.0820312 8.203125 0.15625 C 7.734375 0.238281 7.304688 0.28125 6.921875 0.28125 C 4.023438 0.28125 2.578125 -1.25 2.578125 -4.3125 L 2.578125 -13.21875 L 0.421875 -13.21875 L 0.421875 -14.3125 L 2.578125 -15.265625 L 3.53125 -18.453125 L 4.84375 -18.453125 L 4.84375 -14.984375 L 9.1875 -14.984375 L 9.1875 -13.21875 L 4.84375 -13.21875 L 4.84375 -4.40625 C 4.84375 -3.5 5.054688 -2.800781 5.484375 -2.3125 C 5.910156 -1.832031 6.5 -1.59375 7.25 -1.59375 Z M 7.25 -1.59375 "/></g></g></g><g fill="#ffffff" fill-opacity="1"><g transform="translate(114.636129, 243.962708)"><g><path d="M 9.25 -15.265625 C 9.90625 -15.265625 10.5 -15.207031 11.03125 -15.09375 L 10.71875 -12.984375 C 10.101562 -13.117188 9.554688 -13.1875 9.078125 -13.1875 C 7.867188 -13.1875 6.832031 -12.691406 5.96875 -11.703125 C 5.101562 -10.722656 4.671875 -9.503906 4.671875 -8.046875 L 4.671875 0 L 2.40625 0 L 2.40625 -14.984375 L 4.28125 -14.984375 L 4.546875 -12.203125 L 4.65625 -12.203125 C 5.207031 -13.179688 5.875 -13.9375 6.65625 -14.46875 C 7.4375 -15 8.300781 -15.265625 9.25 -15.265625 Z M 9.25 -15.265625 "/></g></g></g><g fill="#ffffff" fill-opacity="1"><g transform="translate(126.064221, 243.962708)"><g><path d="M 8.734375 0.28125 C 6.523438 0.28125 4.78125 -0.394531 3.5 -1.75 C 2.21875 -3.101562 1.578125 -4.976562 1.578125 -7.375 C 1.578125 -9.789062 2.171875 -11.707031 3.359375 -13.125 C 4.546875 -14.550781 6.144531 -15.265625 8.15625 -15.265625 C 10.03125 -15.265625 11.515625 -14.644531 12.609375 -13.40625 C 13.703125 -12.164062 14.25 -10.535156 14.25 -8.515625 L 14.25 -7.078125 L 3.921875 -7.078125 C 3.972656 -5.316406 4.414062 -3.976562 5.25 -3.0625 C 6.09375 -2.15625 7.28125 -1.703125 8.8125 -1.703125 C 10.425781 -1.703125 12.023438 -2.039062 13.609375 -2.71875 L 13.609375 -0.703125 C 12.804688 -0.347656 12.046875 -0.0976562 11.328125 0.046875 C 10.609375 0.203125 9.742188 0.28125 8.734375 0.28125 Z M 8.125 -13.359375 C 6.914062 -13.359375 5.953125 -12.960938 5.234375 -12.171875 C 4.523438 -11.390625 4.109375 -10.304688 3.984375 -8.921875 L 11.8125 -8.921875 C 11.8125 -10.359375 11.492188 -11.457031 10.859375 -12.21875 C 10.222656 -12.976562 9.3125 -13.359375 8.125 -13.359375 Z M 8.125 -13.359375 "/></g></g></g><g fill="#ffffff" fill-opacity="1"><g transform="translate(141.771019, 243.962708)"><g><path d="M 7.25 -1.59375 C 7.644531 -1.59375 8.03125 -1.625 8.40625 -1.6875 C 8.78125 -1.75 9.078125 -1.8125 9.296875 -1.875 L 9.296875 -0.140625 C 9.046875 -0.015625 8.679688 0.0820312 8.203125 0.15625 C 7.734375 0.238281 7.304688 0.28125 6.921875 0.28125 C 4.023438 0.28125 2.578125 -1.25 2.578125 -4.3125 L 2.578125 -13.21875 L 0.421875 -13.21875 L 0.421875 -14.3125 L 2.578125 -15.265625 L 3.53125 -18.453125 L 4.84375 -18.453125 L 4.84375 -14.984375 L 9.1875 -14.984375 L 9.1875 -13.21875 L 4.84375 -13.21875 L 4.84375 -4.40625 C 4.84375 -3.5 5.054688 -2.800781 5.484375 -2.3125 C 5.910156 -1.832031 6.5 -1.59375 7.25 -1.59375 Z M 7.25 -1.59375 "/></g></g></g><g fill="#ffffff" fill-opacity="1"><g transform="translate(151.65441, 243.962708)"><g><path d="M 8.390625 0.28125 C 6.222656 0.28125 4.546875 -0.382812 3.359375 -1.71875 C 2.171875 -3.0625 1.578125 -4.953125 1.578125 -7.390625 C 1.578125 -9.898438 2.179688 -11.835938 3.390625 -13.203125 C 4.597656 -14.578125 6.316406 -15.265625 8.546875 -15.265625 C 9.265625 -15.265625 9.984375 -15.1875 10.703125 -15.03125 C 11.421875 -14.875 11.988281 -14.691406 12.40625 -14.484375 L 11.703125 -12.546875 C 11.203125 -12.753906 10.65625 -12.921875 10.0625 -13.046875 C 9.46875 -13.179688 8.941406 -13.25 8.484375 -13.25 C 5.441406 -13.25 3.921875 -11.304688 3.921875 -7.421875 C 3.921875 -5.578125 4.289062 -4.160156 5.03125 -3.171875 C 5.78125 -2.191406 6.882812 -1.703125 8.34375 -1.703125 C 9.59375 -1.703125 10.875 -1.972656 12.1875 -2.515625 L 12.1875 -0.5 C 11.175781 0.0195312 9.910156 0.28125 8.390625 0.28125 Z M 8.390625 0.28125 "/></g></g></g><g fill="#ffffff" fill-opacity="1"><g transform="translate(164.982634, 243.962708)"><g><path d="M 12.65625 0 L 12.65625 -9.6875 C 12.65625 -10.914062 12.378906 -11.828125 11.828125 -12.421875 C 11.273438 -13.023438 10.40625 -13.328125 9.21875 -13.328125 C 7.632812 -13.328125 6.476562 -12.898438 5.75 -12.046875 C 5.03125 -11.191406 4.671875 -9.785156 4.671875 -7.828125 L 4.671875 0 L 2.40625 0 L 2.40625 -21.28125 L 4.671875 -21.28125 L 4.671875 -14.828125 C 4.671875 -14.054688 4.632812 -13.414062 4.5625 -12.90625 L 4.703125 -12.90625 C 5.148438 -13.625 5.785156 -14.191406 6.609375 -14.609375 C 7.429688 -15.023438 8.375 -15.234375 9.4375 -15.234375 C 11.269531 -15.234375 12.644531 -14.796875 13.5625 -13.921875 C 14.476562 -13.054688 14.9375 -11.675781 14.9375 -9.78125 L 14.9375 0 Z M 12.65625 0 "/></g></g></g><g fill="#ffffff" fill-opacity="1"><g transform="translate(182.165787, 243.962708)"><g/></g></g><g fill="#ffffff" fill-opacity="1"><g transform="translate(189.43821, 243.962708)"><g><path d="M 8.390625 0.28125 C 6.222656 0.28125 4.546875 -0.382812 3.359375 -1.71875 C 2.171875 -3.0625 1.578125 -4.953125 1.578125 -7.390625 C 1.578125 -9.898438 2.179688 -11.835938 3.390625 -13.203125 C 4.597656 -14.578125 6.316406 -15.265625 8.546875 -15.265625 C 9.265625 -15.265625 9.984375 -15.1875 10.703125 -15.03125 C 11.421875 -14.875 11.988281 -14.691406 12.40625 -14.484375 L 11.703125 -12.546875 C 11.203125 -12.753906 10.65625 -12.921875 10.0625 -13.046875 C 9.46875 -13.179688 8.941406 -13.25 8.484375 -13.25 C 5.441406 -13.25 3.921875 -11.304688 3.921875 -7.421875 C 3.921875 -5.578125 4.289062 -4.160156 5.03125 -3.171875 C 5.78125 -2.191406 6.882812 -1.703125 8.34375 -1.703125 C 9.59375 -1.703125 10.875 -1.972656 12.1875 -2.515625 L 12.1875 -0.5 C 11.175781 0.0195312 9.910156 0.28125 8.390625 0.28125 Z M 8.390625 0.28125 "/></g></g></g><g fill="#ffffff" fill-opacity="1"><g transform="translate(202.766433, 243.962708)"><g><path d="M 8.734375 0.28125 C 6.523438 0.28125 4.78125 -0.394531 3.5 -1.75 C 2.21875 -3.101562 1.578125 -4.976562 1.578125 -7.375 C 1.578125 -9.789062 2.171875 -11.707031 3.359375 -13.125 C 4.546875 -14.550781 6.144531 -15.265625 8.15625 -15.265625 C 10.03125 -15.265625 11.515625 -14.644531 12.609375 -13.40625 C 13.703125 -12.164062 14.25 -10.535156 14.25 -8.515625 L 14.25 -7.078125 L 3.921875 -7.078125 C 3.972656 -5.316406 4.414062 -3.976562 5.25 -3.0625 C 6.09375 -2.15625 7.28125 -1.703125 8.8125 -1.703125 C 10.425781 -1.703125 12.023438 -2.039062 13.609375 -2.71875 L 13.609375 -0.703125 C 12.804688 -0.347656 12.046875 -0.0976562 11.328125 0.046875 C 10.609375 0.203125 9.742188 0.28125 8.734375 0.28125 Z M 8.125 -13.359375 C 6.914062 -13.359375 5.953125 -12.960938 5.234375 -12.171875 C 4.523438 -11.390625 4.109375 -10.304688 3.984375 -8.921875 L 11.8125 -8.921875 C 11.8125 -10.359375 11.492188 -11.457031 10.859375 -12.21875 C 10.222656 -12.976562 9.3125 -13.359375 8.125 -13.359375 Z M 8.125 -13.359375 "/></g></g></g><g fill="#ffffff" fill-opacity="1"><g transform="translate(218.473231, 243.962708)"><g><path d="M 4.671875 0 L 2.40625 0 L 2.40625 -14.984375 L 4.671875 -14.984375 Z M 2.21875 -19.046875 C 2.21875 -19.566406 2.34375 -19.945312 2.59375 -20.1875 C 2.851562 -20.425781 3.175781 -20.546875 3.5625 -20.546875 C 3.925781 -20.546875 4.238281 -20.421875 4.5 -20.171875 C 4.757812 -19.929688 4.890625 -19.554688 4.890625 -19.046875 C 4.890625 -18.535156 4.757812 -18.15625 4.5 -17.90625 C 4.238281 -17.65625 3.925781 -17.53125 3.5625 -17.53125 C 3.175781 -17.53125 2.851562 -17.65625 2.59375 -17.90625 C 2.34375 -18.15625 2.21875 -18.535156 2.21875 -19.046875 Z M 2.21875 -19.046875 "/></g></g></g><g fill="#ffffff" fill-opacity="1"><g transform="translate(225.554274, 243.962708)"><g><path d="M 4.671875 0 L 2.40625 0 L 2.40625 -21.28125 L 4.671875 -21.28125 Z M 4.671875 0 "/></g></g></g><g fill="#ffffff" fill-opacity="1"><g transform="translate(232.635316, 243.962708)"><g><path d="M 4.671875 0 L 2.40625 0 L 2.40625 -14.984375 L 4.671875 -14.984375 Z M 2.21875 -19.046875 C 2.21875 -19.566406 2.34375 -19.945312 2.59375 -20.1875 C 2.851562 -20.425781 3.175781 -20.546875 3.5625 -20.546875 C 3.925781 -20.546875 4.238281 -20.421875 4.5 -20.171875 C 4.757812 -19.929688 4.890625 -19.554688 4.890625 -19.046875 C 4.890625 -18.535156 4.757812 -18.15625 4.5 -17.90625 C 4.238281 -17.65625 3.925781 -17.53125 3.5625 -17.53125 C 3.175781 -17.53125 2.851562 -17.65625 2.59375 -17.90625 C 2.34375 -18.15625 2.21875 -18.535156 2.21875 -19.046875 Z M 2.21875 -19.046875 "/></g></g></g><g fill="#ffffff" fill-opacity="1"><g transform="translate(239.716359, 243.962708)"><g><path d="M 12.65625 0 L 12.65625 -9.6875 C 12.65625 -10.914062 12.378906 -11.828125 11.828125 -12.421875 C 11.273438 -13.023438 10.40625 -13.328125 9.21875 -13.328125 C 7.644531 -13.328125 6.492188 -12.898438 5.765625 -12.046875 C 5.035156 -11.203125 4.671875 -9.804688 4.671875 -7.859375 L 4.671875 0 L 2.40625 0 L 2.40625 -14.984375 L 4.25 -14.984375 L 4.625 -12.9375 L 4.734375 -12.9375 C 5.191406 -13.675781 5.835938 -14.25 6.671875 -14.65625 C 7.515625 -15.0625 8.453125 -15.265625 9.484375 -15.265625 C 11.296875 -15.265625 12.65625 -14.828125 13.5625 -13.953125 C 14.476562 -13.078125 14.9375 -11.6875 14.9375 -9.78125 L 14.9375 0 Z M 12.65625 0 "/></g></g></g><g fill="#ffffff" fill-opacity="1"><g transform="translate(256.899513, 243.962708)"><g><path d="M 14.671875 -14.984375 L 14.671875 -13.546875 L 11.890625 -13.21875 C 12.148438 -12.90625 12.378906 -12.488281 12.578125 -11.96875 C 12.773438 -11.457031 12.875 -10.878906 12.875 -10.234375 C 12.875 -8.765625 12.375 -7.59375 11.375 -6.71875 C 10.375 -5.84375 9 -5.40625 7.25 -5.40625 C 6.800781 -5.40625 6.378906 -5.441406 5.984375 -5.515625 C 5.023438 -5.003906 4.546875 -4.359375 4.546875 -3.578125 C 4.546875 -3.171875 4.710938 -2.867188 5.046875 -2.671875 C 5.378906 -2.472656 5.957031 -2.375 6.78125 -2.375 L 9.4375 -2.375 C 11.0625 -2.375 12.304688 -2.03125 13.171875 -1.34375 C 14.046875 -0.664062 14.484375 0.320312 14.484375 1.625 C 14.484375 3.28125 13.816406 4.546875 12.484375 5.421875 C 11.148438 6.296875 9.207031 6.734375 6.65625 6.734375 C 4.695312 6.734375 3.1875 6.367188 2.125 5.640625 C 1.0625 4.910156 0.53125 3.878906 0.53125 2.546875 C 0.53125 1.628906 0.820312 0.835938 1.40625 0.171875 C 1.988281 -0.492188 2.8125 -0.941406 3.875 -1.171875 C 3.488281 -1.347656 3.164062 -1.617188 2.90625 -1.984375 C 2.644531 -2.347656 2.515625 -2.769531 2.515625 -3.25 C 2.515625 -3.800781 2.660156 -4.28125 2.953125 -4.6875 C 3.242188 -5.101562 3.703125 -5.5 4.328125 -5.875 C 3.554688 -6.195312 2.925781 -6.738281 2.4375 -7.5 C 1.945312 -8.269531 1.703125 -9.144531 1.703125 -10.125 C 1.703125 -11.769531 2.191406 -13.035156 3.171875 -13.921875 C 4.160156 -14.816406 5.5625 -15.265625 7.375 -15.265625 C 8.15625 -15.265625 8.859375 -15.171875 9.484375 -14.984375 Z M 2.71875 2.515625 C 2.71875 3.328125 3.054688 3.941406 3.734375 4.359375 C 4.421875 4.773438 5.40625 4.984375 6.6875 4.984375 C 8.59375 4.984375 10.003906 4.695312 10.921875 4.125 C 11.835938 3.5625 12.296875 2.789062 12.296875 1.8125 C 12.296875 1.007812 12.039062 0.445312 11.53125 0.125 C 11.03125 -0.1875 10.085938 -0.34375 8.703125 -0.34375 L 5.984375 -0.34375 C 4.953125 -0.34375 4.148438 -0.0976562 3.578125 0.390625 C 3.003906 0.890625 2.71875 1.597656 2.71875 2.515625 Z M 3.953125 -10.1875 C 3.953125 -9.132812 4.25 -8.335938 4.84375 -7.796875 C 5.4375 -7.265625 6.257812 -7 7.3125 -7 C 9.53125 -7 10.640625 -8.078125 10.640625 -10.234375 C 10.640625 -12.484375 9.519531 -13.609375 7.28125 -13.609375 C 6.207031 -13.609375 5.382812 -13.316406 4.8125 -12.734375 C 4.238281 -12.160156 3.953125 -11.3125 3.953125 -10.1875 Z M 3.953125 -10.1875 "/></g></g></g><g fill="#ffffff" fill-opacity="1"><g transform="translate(272.237216, 243.962708)"><g><path d="M 12.078125 -4.09375 C 12.078125 -2.695312 11.554688 -1.617188 10.515625 -0.859375 C 9.472656 -0.0976562 8.015625 0.28125 6.140625 0.28125 C 4.148438 0.28125 2.597656 -0.0351562 1.484375 -0.671875 L 1.484375 -2.78125 C 2.210938 -2.414062 2.988281 -2.125 3.8125 -1.90625 C 4.632812 -1.695312 5.425781 -1.59375 6.1875 -1.59375 C 7.375 -1.59375 8.285156 -1.78125 8.921875 -2.15625 C 9.566406 -2.539062 9.890625 -3.117188 9.890625 -3.890625 C 9.890625 -4.472656 9.632812 -4.972656 9.125 -5.390625 C 8.625 -5.804688 7.640625 -6.296875 6.171875 -6.859375 C 4.773438 -7.378906 3.78125 -7.832031 3.1875 -8.21875 C 2.601562 -8.613281 2.164062 -9.054688 1.875 -9.546875 C 1.59375 -10.035156 1.453125 -10.625 1.453125 -11.3125 C 1.453125 -12.53125 1.945312 -13.492188 2.9375 -14.203125 C 3.9375 -14.910156 5.300781 -15.265625 7.03125 -15.265625 C 8.644531 -15.265625 10.222656 -14.9375 11.765625 -14.28125 L 10.953125 -12.421875 C 9.453125 -13.046875 8.085938 -13.359375 6.859375 -13.359375 C 5.785156 -13.359375 4.972656 -13.1875 4.421875 -12.84375 C 3.878906 -12.507812 3.609375 -12.046875 3.609375 -11.453125 C 3.609375 -11.054688 3.707031 -10.71875 3.90625 -10.4375 C 4.113281 -10.15625 4.445312 -9.882812 4.90625 -9.625 C 5.363281 -9.375 6.238281 -9.003906 7.53125 -8.515625 C 9.3125 -7.867188 10.515625 -7.21875 11.140625 -6.5625 C 11.765625 -5.90625 12.078125 -5.082031 12.078125 -4.09375 Z M 12.078125 -4.09375 "/></g></g></g></svg>